<?xml version="1.0" encoding="UTF-8"?>
<svg width="499px" height="500px" viewBox="0 0 499 500" version="1.1" xmlns="http://www.w3.org/2000/svg" xmlns:xlink="http://www.w3.org/1999/xlink">
    <!-- Generator: Sketch 49.2 (51160) - http://www.bohemiancoding.com/sketch -->
    <title>Group 3</title>
    <desc>Created with Sketch.</desc>
    <defs>
        <rect id="path-1" x="0" y="0" width="500" height="500"></rect>
    </defs>
    <g id="Page-1" stroke="none" stroke-width="1" fill="none" fill-rule="evenodd">
        <g id="Group-3">
            <g id="Group-2">
                <mask id="mask-2" fill="white">
                    <use xlink:href="#path-1"></use>
                </mask>
                <g id="Mask"></g>
                <g mask="url(#mask-2)" id="Group">
                    <g transform="translate(-523.000000, -1.000000)">
                        <g transform="translate(523.000000, 0.000000)">
                            <path d="M498,1 L498,500.50025" id="Path" stroke="#4A5360"></path>
                            <path d="M0.257871732,1 L496.500272,1" id="Path" stroke="#4A5360"></path>
                        </g>
                        <g transform="translate(523.000000, 10.000000)">
                            <path d="M488,1 L488,490.500255" id="Path" stroke="#4A5360"></path>
                            <path d="M0.499742799,1 L486.500272,1" id="Path" stroke="#4A5360"></path>
                        </g>
                        <g transform="translate(523.000000, 20.000000)">
                            <path d="M478,1 L478,480.575333" id="Path" stroke="#4A5360"></path>
                            <path d="M0.499737395,1 L476.500272,1" id="Path" stroke="#4A5360"></path>
                        </g>
                        <g transform="translate(523.000000, 29.000000)">
                            <path d="M468,2 L468,471.506656" id="Path" stroke="#4A5360"></path>
                            <path d="M0.49973176,2 L466.500272,2" id="Path" stroke="#4A5360"></path>
                        </g>
                        <g transform="translate(520.000000, 41.000000)">
                            <path d="M461,0 L461,459.500272" id="Path" stroke="#4A5360"></path>
                            <path d="M0,0 L459.500272,0" id="Path" stroke="#4A5360"></path>
                        </g>
                        <g transform="translate(510.000000, 51.000000)">
                            <path d="M461,0 L461,459.500272" id="Path" stroke="#4A5360"></path>
                            <path d="M0,0 L459.500272,0" id="Path" stroke="#4A5360"></path>
                        </g>
                        <g transform="translate(500.000000, 61.000000)">
                            <path d="M461,0 L461,459.500272" id="Path" stroke="#4A5360"></path>
                            <path d="M0,0 L459.500272,0" id="Path" stroke="#4A5360"></path>
                        </g>
                        <g transform="translate(490.000000, 71.000000)">
                            <path d="M461,0 L461,459.500272" id="Path" stroke="#4A5360"></path>
                            <path d="M0,0 L459.500272,0" id="Path" stroke="#4A5360"></path>
                        </g>
                        <g transform="translate(480.000000, 81.000000)">
                            <path d="M461,0 L461,459.500272" id="Path" stroke="#4A5360"></path>
                            <path d="M0,0 L459.500272,0" id="Path" stroke="#4A5360"></path>
                        </g>
                        <g transform="translate(470.000000, 91.000000)">
                            <path d="M461,0 L461,459.500272" id="Path" stroke="#4A5360"></path>
                            <path d="M0,0 L459.500272,0" id="Path" stroke="#4A5360"></path>
                        </g>
                        <g transform="translate(460.000000, 101.000000)">
                            <path d="M461,0 L461,459.500272" id="Path" stroke="#4A5360"></path>
                            <path d="M0,0 L459.500272,0" id="Path" stroke="#4A5360"></path>
                        </g>
                        <g transform="translate(450.000000, 111.000000)">
                            <path d="M461,0 L461,459.500272" id="Path" stroke="#4A5360"></path>
                            <path d="M0,0 L459.500272,0" id="Path" stroke="#4A5360"></path>
                        </g>
                        <g transform="translate(440.000000, 121.000000)">
                            <path d="M461,0 L461,459.500272" id="Path" stroke="#4A5360"></path>
                            <path d="M0,0 L459.500272,0" id="Path" stroke="#4A5360"></path>
                        </g>
                        <g transform="translate(430.000000, 131.000000)">
                            <path d="M461,0 L461,459.500272" id="Path" stroke="#4A5360"></path>
                            <path d="M0,0 L459.500272,0" id="Path" stroke="#4A5360"></path>
                        </g>
                        <g transform="translate(420.000000, 141.000000)">
                            <path d="M461,0 L461,459.500272" id="Path" stroke="#4A5360"></path>
                            <path d="M0,0 L459.500272,0" id="Path" stroke="#4A5360"></path>
                        </g>
                        <g transform="translate(410.000000, 151.000000)">
                            <path d="M461,0 L461,459.500272" id="Path" stroke="#4A5360"></path>
                            <path d="M0,0 L459.500272,0" id="Path" stroke="#4A5360"></path>
                        </g>
                        <g transform="translate(400.000000, 161.000000)">
                            <path d="M461,0 L461,459.500272" id="Path" stroke="#4A5360"></path>
                            <path d="M0,0 L459.500272,0" id="Path" stroke="#4A5360"></path>
                        </g>
                        <g transform="translate(390.000000, 171.000000)">
                            <path d="M461,0 L461,459.500272" id="Path" stroke="#4A5360"></path>
                            <path d="M0,0 L459.500272,0" id="Path" stroke="#4A5360"></path>
                        </g>
                        <g transform="translate(380.000000, 181.000000)">
                            <path d="M461,0 L461,459.500272" id="Path" stroke="#4A5360"></path>
                            <path d="M0,0 L459.500272,0" id="Path" stroke="#4A5360"></path>
                        </g>
                        <g transform="translate(370.000000, 191.000000)">
                            <path d="M461,0 L461,459.500272" id="Path" stroke="#4A5360"></path>
                            <path d="M0,0 L459.500272,0" id="Path" stroke="#4A5360"></path>
                        </g>
                        <g transform="translate(360.000000, 201.000000)">
                            <path d="M461,0 L461,459.500272" id="Path" stroke="#4A5360"></path>
                            <path d="M0,0 L459.500272,0" id="Path" stroke="#4A5360"></path>
                        </g>
                        <g transform="translate(350.000000, 211.000000)">
                            <path d="M461,0 L461,459.500272" id="Path" stroke="#4A5360"></path>
                            <path d="M0,0 L459.500272,0" id="Path" stroke="#4A5360"></path>
                        </g>
                        <g transform="translate(340.000000, 221.000000)">
                            <path d="M461,0 L461,459.500272" id="Path" stroke="#4A5360"></path>
                            <path d="M0,0 L459.500272,0" id="Path" stroke="#4A5360"></path>
                        </g>
                        <g transform="translate(330.000000, 231.000000)">
                            <path d="M461,0 L461,459.500272" id="Path" stroke="#4A5360"></path>
                            <path d="M0,0 L459.500272,0" id="Path" stroke="#4A5360"></path>
                        </g>
                        <g transform="translate(320.000000, 241.000000)">
                            <path d="M461,0 L461,459.500272" id="Path" stroke="#4A5360"></path>
                            <path d="M0,0 L459.500272,0" id="Path" stroke="#4A5360"></path>
                        </g>
                        <g transform="translate(310.000000, 251.000000)">
                            <path d="M461,0 L461,459.500272" id="Path" stroke="#4A5360"></path>
                            <path d="M0,0 L459.500272,0" id="Path" stroke="#4A5360"></path>
                        </g>
                        <g transform="translate(300.000000, 261.000000)">
                            <path d="M461,0 L461,459.500272" id="Path" stroke="#4A5360"></path>
                            <path d="M0,0 L459.500272,0" id="Path" stroke="#4A5360"></path>
                        </g>
                        <g transform="translate(290.000000, 271.000000)">
                            <path d="M461,0 L461,459.500272" id="Path" stroke="#4A5360"></path>
                            <path d="M0,0 L459.500272,0" id="Path" stroke="#4A5360"></path>
                        </g>
                        <g transform="translate(280.000000, 281.000000)">
                            <path d="M461,0 L461,459.500272" id="Path" stroke="#4A5360"></path>
                            <path d="M0,0 L459.500272,0" id="Path" stroke="#4A5360"></path>
                        </g>
                        <g transform="translate(270.000000, 291.000000)">
                            <path d="M461,0 L461,459.500272" id="Path" stroke="#4A5360"></path>
                            <path d="M0,0 L459.500272,0" id="Path" stroke="#4A5360"></path>
                        </g>
                        <g transform="translate(260.000000, 301.000000)">
                            <path d="M461,0 L461,459.500272" id="Path" stroke="#4A5360"></path>
                            <path d="M0,0 L459.500272,0" id="Path" stroke="#4A5360"></path>
                        </g>
                        <g transform="translate(250.000000, 311.000000)">
                            <path d="M461,0 L461,459.500272" id="Path" stroke="#4A5360"></path>
                            <path d="M0,0 L459.500272,0" id="Path" stroke="#4A5360"></path>
                        </g>
                        <g transform="translate(240.000000, 321.000000)">
                            <path d="M461,0 L461,459.500272" id="Path" stroke="#4A5360"></path>
                            <path d="M0,0 L459.500272,0" id="Path" stroke="#4A5360"></path>
                        </g>
                        <g transform="translate(230.000000, 331.000000)">
                            <path d="M461,0 L461,459.500272" id="Path" stroke="#4A5360"></path>
                            <path d="M0,0 L459.500272,0" id="Path" stroke="#4A5360"></path>
                        </g>
                        <g transform="translate(220.000000, 341.000000)">
                            <path d="M461,0 L461,459.500272" id="Path" stroke="#4A5360"></path>
                            <path d="M0,0 L459.500272,0" id="Path" stroke="#4A5360"></path>
                        </g>
                        <g transform="translate(210.000000, 351.000000)">
                            <path d="M461,0 L461,459.500272" id="Path" stroke="#4A5360"></path>
                            <path d="M0,0 L459.500272,0" id="Path" stroke="#4A5360"></path>
                        </g>
                        <g transform="translate(200.000000, 361.000000)">
                            <path d="M461,0 L461,459.500272" id="Path" stroke="#4A5360"></path>
                            <path d="M0,0 L459.500272,0" id="Path" stroke="#4A5360"></path>
                        </g>
                        <g transform="translate(190.000000, 371.000000)">
                            <path d="M461,0 L461,459.500272" id="Path" stroke="#4A5360"></path>
                            <path d="M0,0 L459.500272,0" id="Path" stroke="#4A5360"></path>
                        </g>
                        <g transform="translate(180.000000, 381.000000)">
                            <path d="M461,0 L461,459.500272" id="Path" stroke="#4A5360"></path>
                            <path d="M0,0 L459.500272,0" id="Path" stroke="#4A5360"></path>
                        </g>
                        <g transform="translate(170.000000, 391.000000)">
                            <path d="M461,0 L461,459.500272" id="Path" stroke="#4A5360"></path>
                            <path d="M0,0 L459.500272,0" id="Path" stroke="#4A5360"></path>
                        </g>
                        <g transform="translate(160.000000, 401.000000)">
                            <path d="M461,0 L461,459.500272" id="Path" stroke="#4A5360"></path>
                            <path d="M0,0 L459.500272,0" id="Path" stroke="#4A5360"></path>
                        </g>
                        <g transform="translate(150.000000, 411.000000)">
                            <path d="M461,0 L461,459.500272" id="Path" stroke="#4A5360"></path>
                            <path d="M0,0 L459.500272,0" id="Path" stroke="#4A5360"></path>
                        </g>
                        <g transform="translate(140.000000, 421.000000)">
                            <path d="M461,0 L461,459.500272" id="Path" stroke="#4A5360"></path>
                            <path d="M0,0 L459.500272,0" id="Path" stroke="#4A5360"></path>
                        </g>
                        <g transform="translate(130.000000, 431.000000)">
                            <path d="M461,0 L461,459.500272" id="Path" stroke="#4A5360"></path>
                            <path d="M0,0 L459.500272,0" id="Path" stroke="#4A5360"></path>
                        </g>
                        <g transform="translate(120.000000, 441.000000)">
                            <path d="M461,0 L461,459.500272" id="Path" stroke="#4A5360"></path>
                            <path d="M0,0 L459.500272,0" id="Path" stroke="#4A5360"></path>
                        </g>
                        <g transform="translate(110.000000, 451.000000)">
                            <path d="M461,0 L461,459.500272" id="Path" stroke="#4A5360"></path>
                            <path d="M0,0 L459.500272,0" id="Path" stroke="#4A5360"></path>
                        </g>
                        <g transform="translate(100.000000, 461.000000)">
                            <path d="M461,0 L461,459.500272" id="Path" stroke="#4A5360"></path>
                            <path d="M0,0 L459.500272,0" id="Path" stroke="#4A5360"></path>
                        </g>
                        <g transform="translate(90.000000, 471.000000)">
                            <path d="M461,0 L461,459.500272" id="Path" stroke="#4A5360"></path>
                            <path d="M0,0 L459.500272,0" id="Path" stroke="#4A5360"></path>
                        </g>
                        <g transform="translate(80.000000, 481.000000)">
                            <path d="M461,0 L461,459.500272" id="Path" stroke="#4A5360"></path>
                            <path d="M0,0 L459.500272,0" id="Path" stroke="#4A5360"></path>
                        </g>
                        <g transform="translate(70.000000, 491.000000)">
                            <path d="M461,0 L461,459.500272" id="Path" stroke="#4A5360"></path>
                            <path d="M0,0 L459.500272,0" id="Path" stroke="#4A5360"></path>
                        </g>
                    </g>
                </g>
            </g>
        </g>
    </g>
</svg>