<?xml version="1.0" encoding="utf-8"?>
<!-- Generator: Adobe Illustrator 18.1.1, SVG Export Plug-In . SVG Version: 6.00 Build 0)  -->
<svg version="1.1" id="Layer_1" xmlns="http://www.w3.org/2000/svg" xmlns:xlink="http://www.w3.org/1999/xlink" x="0px" y="0px"
	 viewBox="0 0 792 612" enable-background="new 0 0 792 612" xml:space="preserve">
<g>
	<g>
		<path fill="#ED1C24" d="M622.7,434.8V259.5c0-15.7-13.2-29.4-29.4-29.4H257c-16.2,0-29.4,13.2-29.4,29.4v175.8
			c0,15.7,13.2,29.4,29.4,29.4h336.4C610,464.1,622.7,450.9,622.7,434.8z M257,449.5c-7.8,0-14.7-6.9-14.7-14.7V259.5
			c0-7.8,6.4-14.7,14.7-14.7h336.4c7.8,0,14.7,6.9,14.7,14.7v175.8c0,7.8-6.4,14.7-14.7,14.7H257V449.5z"/>
		<path fill="#ED1C24" d="M286.3,259.5v175.8h278.1V259.5H286.3z M549.7,274.2v146.4H301V274.2H549.7z"/>
		<path fill="#ED1C24" d="M212.9,405.9h-14.7c-7.8,0-14.7-6.4-14.7-14.7V54.8c0-7.8,6.9-14.7,14.7-14.7H374
			c7.8,0,14.7,6.4,14.7,14.7v160.6h14.7V54.8c0-16.2-13.2-29.4-29.4-29.4H198.7c-15.7,0-29.4,13.2-29.4,29.4v336.4
			c0,16.2,13.2,29.4,29.4,29.4h14.7v-14.7L212.9,405.9L212.9,405.9z"/>
		<polygon fill="#ED1C24" points="212.9,347.1 212.9,230.1 212.9,98.4 359.3,98.4 359.3,215.4 374,215.4 374,83.7 198.7,83.7 
			198.7,361.8 212.9,361.8 		"/>
		<path fill="#ED1C24" d="M576.2,185.6C563.9,120.9,513.5,70,448.9,57.8l25-18.6L465,27.4l-47.5,34.3l34.3,47.5l11.8-8.8L442.5,71
			c60.2,10.3,108.2,58.3,119,118.5L576.2,185.6z"/>
	</g>
</g>
</svg>
