<?xml version="1.0" encoding="UTF-8"?>
<svg width="454px" height="440px" viewBox="0 0 454 440" version="1.1" xmlns="http://www.w3.org/2000/svg" xmlns:xlink="http://www.w3.org/1999/xlink">
    <!-- Generator: Sketch 43.2 (39069) - http://www.bohemiancoding.com/sketch -->
    <title>rotate</title>
    <desc>Created with Sketch.</desc>
    <defs></defs>
    <g id="Page-1" stroke="none" stroke-width="1" fill="none" fill-rule="evenodd">
        <g id="rotate" fill-rule="nonzero" fill="#4B535F">
            <path d="M453.7,409.8 L453.7,234.5 C453.7,218.8 440.5,205.1 424.3,205.1 L88,205.1 C71.8,205.1 58.6,218.3 58.6,234.5 L58.6,410.3 C58.6,426 71.8,439.7 88,439.7 L424.4,439.7 C441,439.1 453.7,425.9 453.7,409.8 Z M88,424.5 C80.2,424.5 73.3,417.6 73.3,409.8 L73.3,234.5 C73.3,226.7 79.7,219.8 88,219.8 L424.4,219.8 C432.2,219.8 439.1,226.7 439.1,234.5 L439.1,410.3 C439.1,418.1 432.7,425 424.4,425 L88,425 L88,424.5 Z" id="Shape"></path>
            <path d="M117.3,234.5 L117.3,410.3 L395.4,410.3 L395.4,234.5 L117.3,234.5 Z M380.7,249.2 L380.7,395.6 L132,395.6 L132,249.2 L380.7,249.2 Z" id="Shape"></path>
            <path d="M43.9,380.9 L29.2,380.9 C21.4,380.9 14.5,374.5 14.5,366.2 L14.5,29.8 C14.5,22 21.4,15.1 29.2,15.1 L205,15.1 C212.8,15.1 219.7,21.5 219.7,29.8 L219.7,190.4 L234.4,190.4 L234.4,29.8 C234.4,13.6 221.2,0.4 205,0.4 L29.7,0.4 C14,0.4 0.3,13.6 0.3,29.8 L0.3,366.2 C0.3,382.4 13.5,395.6 29.7,395.6 L44.4,395.6 L44.4,380.9 L43.9,380.9 L43.9,380.9 Z" id="Shape"></path>
            <polygon id="Shape" points="43.9 322.1 43.9 205.1 43.9 73.4 190.3 73.4 190.3 190.4 205 190.4 205 58.7 29.7 58.7 29.7 336.8 43.9 336.8"></polygon>
            <path d="M407.2,160.6 C394.9,95.9 344.5,45 279.9,32.8 L304.9,14.2 L296,2.4 L248.5,36.7 L282.8,84.2 L294.6,75.4 L273.5,46 C333.7,56.3 381.7,104.3 392.5,164.5 L407.2,160.6 Z" id="Shape"></path>
        </g>
    </g>
</svg>